<svg height="387pt" viewBox="0 -1 387.12683 387" width="387pt" xmlns="http://www.w3.org/2000/svg"><path d="m295.632812 66c-18.007812-39.800781-57.855468-65.9375-102.105468-65.9375h-140.191406l-53.335938 320h88.265625l-10.65625 64h120.4375l16-96h61c55.03125 0 101.503906-39.359375 110.503906-93.597656 5.175781-30.960938-2.503906-61.714844-21.605469-86.585938-16.875-21.960937-41.386718-36.832031-68.3125-41.878906zm-202.058593 222.0625h-55.796875l42.664062-256h113.085938c33.992187 0 64.382812 21.570312 75.617187 53.679688 4.398438 12.601562 5.550781 26.226562 3.320313 39.464843-6.425782 38.738281-39.625 66.855469-78.9375 66.855469h-83.953125zm260.417969-98.878906v.023437c-6.433594 38.738281-39.625 66.855469-78.945313 66.855469h-88.109375l-16 96h-55.5625l21.3125-128h56.839844c4.425781 0 8.761718-.34375 13.058594-.839844 45.414062-5.238281 82.957031-37.382812 94.941406-81.542968 1-3.664063 1.863281-7.390626 2.496094-11.214844.007812-.058594.007812-.121094.015624-.175782.753907-4.480468 1.21875-8.992187 1.410157-13.523437.007812-.117187.023437-.230469.023437-.351563.175782-4.488281.0625-8.976562-.296875-13.4375-.015625-.21875-.015625-.433593-.039062-.648437-.015625-.144531-.015625-.289063-.023438-.441406 13.0625 5.320312 24.6875 14.074219 33.445313 25.472656 13.648437 17.769531 19.128906 39.71875 15.433594 61.824219zm0 0"/></svg>